<svg width="36" height="36" viewBox="0 0 36 36" fill="none" xmlns="http://www.w3.org/2000/svg">
<path d="M18 36C27.9411 36 36 27.9411 36 18C36 8.05887 27.9411 0 18 0C8.05887 0 0 8.05887 0 18C0 27.9411 8.05887 36 18 36Z" fill="#252525"/>
<path fill-rule="evenodd" clip-rule="evenodd" d="M9.11241 17.546C13.9442 15.482 17.1662 14.1214 18.7783 13.464C23.3813 11.5869 24.3377 11.2609 24.9611 11.2501C25.0982 11.2477 25.4048 11.2811 25.6034 11.439C25.7711 11.5724 25.8172 11.7526 25.8393 11.8791C25.8614 12.0056 25.8889 12.2937 25.867 12.5188C25.6176 15.0883 24.5383 21.3239 23.9892 24.2017C23.7568 25.4195 23.2994 25.8278 22.8565 25.8678C21.8939 25.9546 21.163 25.2441 20.2308 24.645C18.772 23.7075 17.9479 23.1238 16.5319 22.209C14.8955 21.1517 15.9563 20.5706 16.8889 19.621C17.133 19.3724 21.3738 15.5906 21.4559 15.2475C21.4662 15.2046 21.4757 15.0447 21.3788 14.9602C21.2819 14.8758 21.1389 14.9046 21.0356 14.9276C20.8893 14.9602 18.5589 16.4703 14.0444 19.4581C13.3829 19.9034 12.7837 20.1204 12.2469 20.109C11.6551 20.0965 10.5167 19.781 9.67048 19.5113C8.63249 19.1805 7.80752 19.0056 7.87936 18.4438C7.91678 18.1511 8.32779 17.8519 9.11241 17.546Z" fill="white"/>
</svg>
