<svg width="16" height="20" viewBox="0 0 16 20" fill="none" xmlns="http://www.w3.org/2000/svg">
<path d="M14 12L14.7071 11.2929C15.0976 11.6834 15.0976 12.3166 14.7071 12.7071L14 12ZM7.29289 6.70711C6.90237 6.31658 6.90237 5.68342 7.2929 5.29289C7.68342 4.90237 8.31659 4.90237 8.70711 5.29289L7.29289 6.70711ZM8.70711 18.7071C8.31658 19.0976 7.68342 19.0976 7.29289 18.7071C6.90237 18.3166 6.90237 17.6834 7.29289 17.2929L8.70711 18.7071ZM2 13C1.44771 13 0.999998 12.5523 0.999999 12C1 11.4477 1.44772 11 2 11L2 13ZM13.2929 12.7071L7.29289 6.70711L8.70711 5.29289L14.7071 11.2929L13.2929 12.7071ZM14.7071 12.7071L8.70711 18.7071L7.29289 17.2929L13.2929 11.2929L14.7071 12.7071ZM2 11L14 11L14 13L2 13L2 11Z" fill="#252525"/>
</svg>
