<svg width="40" height="40" viewBox="0 0 40 40" fill="none" xmlns="http://www.w3.org/2000/svg">
<rect width="40" height="40" rx="20" fill="#F3F3F3"/>
<path d="M14 20L13.5757 19.5758C13.3414 19.8101 13.3414 20.19 13.5757 20.4243L14 20ZM20.4243 14.4243C20.6586 14.1899 20.6586 13.81 20.4243 13.5757C20.1899 13.3414 19.81 13.3414 19.5757 13.5757L20.4243 14.4243ZM19.5757 26.4243C19.8101 26.6586 20.19 26.6586 20.4243 26.4243C20.6586 26.1899 20.6586 25.8101 20.4243 25.5757L19.5757 26.4243ZM26 20.6C26.3314 20.6 26.6 20.3314 26.6 20C26.6 19.6686 26.3314 19.4 26 19.4L26 20.6ZM14.4243 20.4243L20.4243 14.4243L19.5757 13.5757L13.5757 19.5758L14.4243 20.4243ZM13.5757 20.4243L19.5757 26.4243L20.4243 25.5757L14.4243 19.5758L13.5757 20.4243ZM26 19.4L14 19.4L14 20.6L26 20.6L26 19.4Z" fill="#252525"/>
</svg>
