<svg width="36" height="36" viewBox="0 0 36 36" fill="none" xmlns="http://www.w3.org/2000/svg">
<path d="M26.9985 24.75H23.5046V19.2688C23.5046 17.9617 23.4813 16.2791 21.6874 16.2791C19.8676 16.2791 19.5892 17.7032 19.5892 19.1736V24.7496H16.0953V13.478H19.4494V15.0184H19.4964C19.8321 14.4435 20.3171 13.9705 20.8999 13.6498C21.4827 13.3292 22.1414 13.1729 22.8058 13.1976C26.3471 13.1976 27 15.531 27 18.5666L26.9985 24.75ZM12.1529 11.9373C11.7519 11.9373 11.3599 11.8183 11.0264 11.5951C10.6929 11.372 10.433 11.0549 10.2795 10.6837C10.126 10.3126 10.0857 9.90424 10.1639 9.51023C10.2421 9.11622 10.4351 8.75427 10.7186 8.47016C11.0021 8.18605 11.3634 7.99254 11.7567 7.9141C12.15 7.83566 12.5576 7.87581 12.9282 8.02947C13.2987 8.18314 13.6154 8.44341 13.8382 8.77739C14.0611 9.11137 14.1801 9.50404 14.1802 9.90576C14.1802 10.1725 14.1278 10.4366 14.026 10.6831C13.9241 10.9295 13.7748 11.1534 13.5865 11.3421C13.3983 11.5307 13.1748 11.6804 12.9288 11.7825C12.6829 11.8846 12.4192 11.9372 12.1529 11.9373ZM13.8999 24.75H10.4023V13.478H13.8999V24.75Z" fill="white"/>
</svg>
