<svg width="24" height="24" viewBox="0 0 24 24" fill="none" xmlns="http://www.w3.org/2000/svg">
<path d="M14.062 16.3179C13.8278 16.8452 13.4944 17.3391 13.062 17.7715L11.4541 19.3794C9.56694 21.2666 6.50719 21.2666 4.61999 19.3794C2.73279 17.4922 2.73279 14.4325 4.61999 12.5453L6.22788 10.9374C8.11508 9.05017 11.1748 9.05017 13.062 10.9374C13.5493 11.4246 13.9107 11.99 14.1464 12.5932" stroke="#306AFF" stroke-width="1.4" stroke-miterlimit="2" stroke-linecap="round" stroke-linejoin="round"/>
<path d="M9.93643 7.68249C10.1707 7.1552 10.504 6.66125 10.9364 6.22886L12.5443 4.62097C14.4315 2.73377 17.4912 2.73377 19.3784 4.62097C21.2656 6.50817 21.2656 9.56792 19.3784 11.4551L17.7705 13.063C15.8833 14.9502 12.8236 14.9502 10.9364 13.063C10.4491 12.5758 10.0877 12.0104 9.85205 11.4071" stroke="#306AFF" stroke-width="1.4" stroke-miterlimit="2" stroke-linecap="round" stroke-linejoin="round"/>
</svg>
