<svg width="40" height="40" viewBox="0 0 40 40" fill="none" xmlns="http://www.w3.org/2000/svg">
<rect width="40" height="40" rx="8" fill="#252525"/>
<path d="M17.752 25.0566V27H10.2031V25.0566H17.752ZM10.8965 12.7812V27H8.44531V12.7812H10.8965ZM16.7656 18.7188V20.6328H10.2031V18.7188H16.7656ZM17.7031 12.7812V14.7344H10.2031V12.7812H17.7031ZM29.7523 22.3711H32.1938C32.1156 23.3021 31.8552 24.1322 31.4125 24.8613C30.9698 25.584 30.348 26.1536 29.5473 26.5703C28.7465 26.987 27.7732 27.1953 26.6273 27.1953C25.7484 27.1953 24.9574 27.0391 24.2543 26.7266C23.5512 26.4076 22.949 25.9583 22.4477 25.3789C21.9464 24.793 21.5622 24.0866 21.2953 23.2598C21.0349 22.4329 20.9047 21.5085 20.9047 20.4863V19.3047C20.9047 18.2826 21.0382 17.3581 21.3051 16.5312C21.5785 15.7044 21.9691 14.998 22.477 14.4121C22.9848 13.8197 23.5935 13.3672 24.3031 13.0547C25.0193 12.7422 25.8233 12.5859 26.7152 12.5859C27.848 12.5859 28.8051 12.7943 29.5863 13.2109C30.3676 13.6276 30.973 14.2038 31.4027 14.9395C31.8389 15.6751 32.1059 16.5182 32.2035 17.4688H29.7621C29.697 16.8568 29.5538 16.3327 29.3324 15.8965C29.1176 15.4603 28.7986 15.1283 28.3754 14.9004C27.9522 14.666 27.3988 14.5488 26.7152 14.5488C26.1553 14.5488 25.6671 14.653 25.2504 14.8613C24.8337 15.0697 24.4854 15.3757 24.2055 15.7793C23.9255 16.1829 23.7139 16.681 23.5707 17.2734C23.434 17.8594 23.3656 18.5299 23.3656 19.2852V20.4863C23.3656 21.2025 23.4275 21.8535 23.5512 22.4395C23.6814 23.0189 23.8767 23.5169 24.1371 23.9336C24.404 24.3503 24.7426 24.6725 25.1527 24.9004C25.5629 25.1283 26.0544 25.2422 26.6273 25.2422C27.324 25.2422 27.8871 25.1315 28.3168 24.9102C28.753 24.6888 29.0818 24.3665 29.3031 23.9434C29.531 23.5137 29.6807 22.9896 29.7523 22.3711Z" fill="white"/>
</svg>
