<svg width="36" height="36" viewBox="0 0 36 36" fill="none" xmlns="http://www.w3.org/2000/svg">
<path d="M18 36C27.9411 36 36 27.9411 36 18C36 8.05888 27.9411 0 18 0C8.05888 0 0 8.05888 0 18C0 27.9411 8.05888 36 18 36Z" fill="#252525"/>
<path d="M18.3024 28C16.7794 28 15.3834 27.7614 14.1142 27.2842C12.86 26.8069 11.7775 26.1273 10.8667 25.2451C9.95595 24.3774 9.24673 23.329 8.73908 22.0998C8.24636 20.8561 8 19.4751 8 17.9566C8 16.4816 8.25383 15.1294 8.76148 13.9002C9.28406 12.671 9.99328 11.6226 10.8891 10.7549C11.785 9.87274 12.8376 9.19306 14.047 8.71583C15.2714 8.23861 16.5928 8 18.0112 8C19.5192 8 20.8854 8.22415 22.1097 8.67245C23.349 9.10629 24.4016 9.7209 25.2676 10.5163C26.1486 11.3116 26.8205 12.2733 27.2833 13.4013C27.7611 14.5293 28 15.773 28 17.1323C28 18.1591 27.8806 19.0557 27.6417 19.8221C27.4028 20.5741 27.0668 21.196 26.6338 21.6876C26.2158 22.1793 25.7156 22.5481 25.1333 22.7939C24.5659 23.0398 23.9388 23.1627 23.252 23.1627C22.9235 23.1627 22.6025 23.1338 22.2889 23.0759C21.9903 23.0181 21.7141 22.9096 21.4602 22.7505C21.2214 22.5915 21.0123 22.3818 20.8331 22.1215C20.654 21.8612 20.5196 21.5286 20.43 21.1236C20.2658 21.4418 20.0866 21.731 19.8925 21.9913C19.6984 22.2372 19.467 22.4469 19.1982 22.6204C18.9444 22.7939 18.6458 22.9313 18.3024 23.0325C17.9739 23.1193 17.5931 23.1627 17.1601 23.1627C16.548 23.1627 15.9881 23.0615 15.4804 22.859C14.9728 22.6565 14.5323 22.3529 14.159 21.9479C13.8007 21.543 13.517 21.0296 13.308 20.4078C13.1138 19.786 13.0168 19.0701 13.0168 18.2603V17.6746C13.0168 16.8648 13.1138 16.1562 13.308 15.5488C13.517 14.927 13.7932 14.4136 14.1366 14.0087C14.495 13.6038 14.928 13.3073 15.4356 13.1193C15.9433 12.9168 16.4957 12.8156 17.0929 12.8156C17.5259 12.8156 17.8992 12.859 18.2128 12.9458C18.5412 13.0325 18.8249 13.1555 19.0638 13.3145C19.3027 13.4591 19.5043 13.6327 19.6685 13.8351C19.8328 14.0231 19.9597 14.2256 20.0493 14.4425V13.0108H22.2889V19.128C22.2889 19.5329 22.3113 19.8655 22.3561 20.1258C22.4009 20.3861 22.4681 20.5958 22.5577 20.7549C22.6473 20.8995 22.7592 21.0007 22.8936 21.0586C23.0429 21.1164 23.2146 21.1453 23.4087 21.1453C23.7671 21.1453 24.0956 21.0803 24.3942 20.9501C24.6928 20.82 24.9466 20.5958 25.1557 20.2777C25.3796 19.9595 25.5439 19.5474 25.6484 19.0412C25.7678 18.5206 25.8275 17.8843 25.8275 17.1323C25.8275 15.9176 25.6185 14.8547 25.2004 13.9436C24.7973 13.0325 24.2374 12.2806 23.5207 11.6876C22.819 11.0803 21.9903 10.6247 21.0347 10.321C20.0791 10.0174 19.0713 9.86551 18.0112 9.86551C16.8914 9.86551 15.8537 10.0535 14.8981 10.4295C13.9425 10.8055 13.1138 11.3406 12.4121 12.0347C11.7103 12.7289 11.1579 13.5748 10.7548 14.5727C10.3666 15.5705 10.1725 16.6985 10.1725 17.9566C10.1725 19.2292 10.3666 20.3717 10.7548 21.3839C11.1579 22.3962 11.7103 23.2495 12.4121 23.9436C13.1288 24.6522 13.9873 25.1873 14.9877 25.5488C15.9881 25.9248 17.0929 26.1128 18.3024 26.1128C19.4968 26.1128 20.5047 25.9971 21.3259 25.7657C22.1471 25.5488 22.8339 25.2813 23.3863 24.9631V27.0022C22.804 27.2914 22.1097 27.53 21.3035 27.718C20.4972 27.906 19.4968 28 18.3024 28ZM17.6081 21.167C17.9664 21.167 18.2949 21.1092 18.5935 20.9935C18.8921 20.8778 19.1459 20.7115 19.355 20.4946C19.564 20.2777 19.7208 20.0174 19.8253 19.7137C19.9448 19.41 20.0045 19.0701 20.0045 18.6941V17.2625C20.0045 16.8865 19.9448 16.5466 19.8253 16.2429C19.7208 15.9393 19.564 15.6862 19.355 15.4837C19.1459 15.2668 18.8921 15.1005 18.5935 14.9848C18.2949 14.8691 17.9589 14.8113 17.5857 14.8113C16.8988 14.8113 16.3539 15.0427 15.9507 15.5054C15.5625 15.9537 15.3684 16.6985 15.3684 17.7397V18.2386C15.3684 19.2654 15.57 20.0101 15.9731 20.4729C16.3763 20.9356 16.9212 21.167 17.6081 21.167Z" fill="white"/>
</svg>
